<svg width="85" height="42" viewBox="0 0 85 42" fill="#C3C8DA" xmlns="http://www.w3.org/2000/svg">
<g clip-path="url(#clip0)">
<path d="M84.2526 24.401C64.5232 21.346 38.1057 23.0693 19.9871 28.4744C19.7552 28.5396 19.6134 28.6571 19.549 28.8921C19.4974 29.0619 19.317 29.7408 19.2913 29.8583C19.2268 30.1194 19.3686 30.4458 19.6779 30.3805C40.8892 25.4846 60.3737 25.1191 81.7784 30.0541C82.6804 30.263 83.3248 29.7146 83.6212 28.9444C83.6212 28.9444 84.5619 26.5291 84.9098 25.6935C85.1675 25.0929 84.884 24.5054 84.2526 24.401Z" fill="white"/>
<path d="M21.5593 23.1085C21.8299 24.3618 23.8144 25.7588 25.567 25.3018C26.8428 24.9754 28.4278 22.2076 29.8582 19.1135C29.8454 19.3354 29.8454 19.5051 29.8582 19.6096C30.1289 21.0979 32.7191 22.1554 33.9175 21.8943C34.5619 21.7507 35.1933 21.124 35.7861 20.2232C36.2758 21.0326 38.0283 21.359 39.1237 21.2546C39.6778 21.2024 39.9871 20.8629 40.1289 20.5887C40.7216 19.3485 43.75 13.6431 46.9459 8.39478C45.683 12.664 44.4459 17.2857 44.5103 18.056C44.6005 19.1004 46.7139 19.5574 47.9768 19.4268C48.5309 19.3746 48.7887 19.1787 48.9175 18.9046C49.433 17.834 51.8814 13.369 54.6521 9.0345C53.5696 12.5073 52.5258 16.0454 52.5773 16.7373C52.7062 18.2518 55.5283 19.5574 56.7526 19.4399C58.0283 19.3093 59.4201 17.3771 60.6701 15.0662C61.3531 17.3509 63.7242 19.6487 65.4124 19.8707C71.0567 20.6279 77.8608 10.6142 79.4974 6.21448C79.5232 6.16226 79.5361 6.11004 79.549 6.04476C81.9717 10.4315 83.3505 16.3065 80.5541 18.4476C79.201 19.479 77.2165 18.0168 77.8866 15.1054C77.9768 14.7007 77.6804 14.3873 77.2165 14.544C76.4046 14.8443 75.3995 15.5362 74.4588 16.3718C74.2397 16.5676 74.1366 16.7896 74.1366 17.0637C74.2268 20.6932 78.5954 22.1163 81.9072 19.1526C85.451 15.9801 86.4562 8.87784 81.7397 0.287221C81.6237 0.0783304 81.4304 -0.0652817 81.1469 0.0130521C80.5284 0.16972 78.3505 1.00528 77.3582 1.69723C77.2036 1.80168 77.1263 1.95834 77.1005 2.14112C75.8119 7.10227 69.3557 18.4346 64.5103 17.7948C63.7113 17.6904 63.4923 17.0376 63.6082 16.0323C63.7242 15.3273 63.8918 14.6093 64.1108 13.8781C68.6598 14.1262 73.9562 7.11532 73.9433 3.92975C73.9304 1.91918 70.7861 0.0522191 68.7242 0.0652747C66.933 0.0783304 63.518 4.88281 61.6237 9.68728C60.2706 12.677 58.4794 16.4632 57.5644 16.5546C57.4613 16.5676 57.384 16.4501 57.3582 16.2282C57.1907 14.2698 60.2448 4.9742 60.9278 3.44669C61.0954 3.05502 60.9278 2.58501 60.5799 2.40224C59.9742 2.10196 59.0335 1.7364 58.2088 1.51445C57.7062 1.38389 57.2938 1.67112 56.9845 2.03668C56.5335 2.58501 52.9768 7.71588 50.1289 12.3376C51.1985 8.14672 52.7191 3.60335 53.0928 2.46751C53.2088 2.10196 53.0283 1.77556 52.7448 1.65806C52.1649 1.41001 51.2758 1.03139 50.3479 0.731113C49.8582 0.574445 49.3943 0.861669 49.1108 1.24028C48.6985 1.78862 44.7551 7.91172 41.6108 13.2776C42.2551 10.9928 44.4072 4.04725 44.4201 4.00808C44.4974 3.74697 44.4201 3.4728 44.2139 3.38141C43.634 3.10724 42.5387 2.63724 41.4304 2.29779C40.9149 2.14112 40.7088 2.33696 40.567 2.7939C40.1417 4.21697 35.799 18.6435 34.4588 18.9307C34.317 18.9568 34.2655 18.8523 34.2268 18.6304C33.9046 16.8026 36.0309 8.08144 36.5077 6.27976C36.6366 5.80976 36.585 5.5617 36.1856 5.35281C35.5928 5.05253 34.2912 4.75225 33.9046 4.68697C33.518 4.63475 33.3376 4.80447 33.2216 5.17003C33.0412 5.70531 32.835 6.33198 32.4484 7.4156C32.4484 7.4156 29.5361 4.2953 27.1134 4.93503C24.3041 5.66615 20.8118 19.5835 21.5593 23.1085ZM70.3608 2.76779C71.25 5.5617 67.0619 11.1365 64.6263 12.3245C66.1985 8.13366 68.9562 4.12558 70.3608 2.76779ZM29.3814 7.49394C30.1289 7.2981 31.701 8.90395 31.8428 9.07367C30.2706 13.5909 26.6495 22.0771 25.7861 22.299C25.7216 22.3121 25.6701 22.2468 25.6443 22.1424C25.2835 20.4582 28.3247 7.76811 29.3814 7.49394Z" fill="white"/>
<path d="M21.6365 3.95586C20.7474 3.68169 19.1365 3.34225 17.8737 3.26391C17.2809 3.22475 16.92 3.55114 16.8685 4.09947C15.6185 16.5415 14.3943 35.6027 9.02056 38.3053C6.22417 39.7153 3.76283 36.4514 6.92005 30.6938C7.20355 30.1846 6.97159 29.6494 6.32726 29.6624C4.71644 29.6755 2.93809 30.0802 1.88139 30.4719C1.50767 30.6155 1.21128 30.9158 1.05664 31.2813C-2.69336 39.9111 4.32984 44.0759 9.57468 40.9947C15.1932 37.6786 18.1314 26.7118 22.0618 4.75226C22.1391 4.33447 21.9845 4.06031 21.6365 3.95586Z" fill="white"/>
</g>
<defs>
<clipPath id="clip0">
<rect width="85" height="42" fill="white"/>
</clipPath>
</defs>
</svg>
