<?xml version="1.0" encoding="UTF-8" standalone="no"?>
<svg
   xmlns:dc="http://purl.org/dc/elements/1.1/"
   xmlns:cc="http://creativecommons.org/ns#"
   xmlns:rdf="http://www.w3.org/1999/02/22-rdf-syntax-ns#"
   xmlns:svg="http://www.w3.org/2000/svg"
   xmlns="http://www.w3.org/2000/svg"
   viewBox="0 0 1200 1200"
   height="100%"
   width="100%"
   xml:space="preserve"
   id="svg2"
   version="1.1"><metadata
     id="metadata8"><rdf:RDF><cc:Work
         rdf:about=""><dc:format>image/svg+xml</dc:format><dc:type
           rdf:resource="http://purl.org/dc/dcmitype/StillImage" /></cc:Work></rdf:RDF></metadata><defs
     id="defs6"><clipPath
       id="clipPath18"
       clipPathUnits="userSpaceOnUse"><path
         id="path16"
         d="M 0,900 H 900 V 0 H 0 Z" /></clipPath></defs><g
     transform="matrix(1.3333333,0,0,-1.3333333,0,1200)"
     id="g10"><g
       id="g12"><g
         clip-path="url(#clipPath18)"
         id="g14"><g
           transform="translate(724.9316,573.5063)"
           id="g20"><path
             id="path22"
             style="fill:#C3C8DA;fill-opacity:1;fill-rule:nonzero;stroke:none"
             d="m 0,0 c -5.139,0.192 -9.312,-2.229 -13.29,-5.027 -17.216,-12.111 -26.908,-29.588 -34.385,-48.588 -1.032,-2.625 -1.929,-5.843 0.692,-7.906 2.52,-1.985 5.507,-0.682 8.003,0.739 15.384,8.762 29.436,19.251 41.076,32.692 3.75,4.33 6.355,9.458 7.457,15.133 C 10.969,-5.663 6.77,-0.127 0,0 m -468.821,-189.506 c 0.425,-3.99 0.037,-8.898 5.207,-10.373 4.707,-1.343 7.227,2.439 9.309,5.852 10.946,17.945 21.817,35.935 32.657,53.944 15.38,25.551 30.751,51.107 46,76.737 1.65,2.774 4.207,5.91 1.615,9.386 -2.34,3.137 -6.029,2.681 -9.428,2.639 -5.135,-0.063 -9.246,-2.649 -13.02,-5.71 -4.866,-3.945 -9.301,-8.383 -12.934,-13.511 -20.912,-29.516 -39.343,-60.438 -53.031,-94.031 -3.234,-7.936 -5.104,-16.223 -6.375,-24.933 m 308.289,116.051 c -8.811,-7.353 -13.398,-14.868 -17.977,-22.321 -12.529,-20.39 -23.512,-41.629 -33.89,-63.171 -6.995,-14.52 -15.636,-19.657 -31.33,-17.845 -6.72,0.776 -10.089,6.634 -8.657,16.792 2.144,15.199 4.705,30.342 7.335,45.467 1.982,11.398 4.35,22.729 4.825,34.886 -5.621,-8.717 -11.529,-17.264 -16.81,-26.182 -16.097,-27.182 -32.056,-54.448 -47.818,-81.826 -3.326,-5.776 -7.359,-9.576 -13.988,-11.387 -8.393,-2.291 -14.021,-1.006 -17.79,7.694 -3.566,8.231 -5.589,8.019 -10.32,0.342 -11.894,-19.302 -27.209,-26.733 -47.058,-22.834 -11.166,2.193 -16.576,8.206 -17.794,19.751 -0.683,6.468 -1.387,12.935 -2.149,20.027 -3.7,-0.883 -4.441,-3.848 -5.769,-6.075 -7.436,-12.467 -15.193,-24.766 -22.06,-37.542 -6.87,-12.782 -17.767,-15.958 -30.896,-14.699 -11.55,1.107 -21.339,9.708 -24.428,22.024 -3.52,14.031 -3.407,28.421 0.204,42.289 10.923,41.949 27.66,81.331 54.531,115.787 8.257,10.589 17.997,19.805 29.713,26.67 13.348,7.821 26.676,7.845 39.219,-1.336 5.215,-3.818 7.667,-2.975 9.967,2.536 1.196,2.864 2.766,5.673 4.661,8.124 4.407,5.7 10.231,8.152 17.327,5.846 4.861,-1.58 9.597,-3.569 14.323,-5.534 10.337,-4.296 11.329,-6.677 6.807,-16.726 -12.614,-28.026 -25.499,-55.932 -37.86,-84.069 -6.735,-15.329 -15.321,-29.927 -19.036,-46.51 -1.027,-4.586 -2.146,-9.421 2.371,-12.493 4.907,-3.338 9.911,-1.398 14.243,1.792 11.262,8.296 19.045,19.487 25.518,31.644 16.686,31.335 26.539,65.304 37.764,98.733 4.256,12.675 8.088,25.49 12.182,38.22 4.007,12.46 6.953,14.125 19.278,10.979 5.789,-1.477 11.548,-3.063 17.317,-4.615 9.345,-2.514 10.592,-4.913 7.167,-14.008 -10.429,-27.692 -20.883,-55.373 -31.32,-83.061 -0.796,-2.112 -1.533,-4.246 -1.586,-6.902 1.691,2.295 3.486,4.521 5.057,6.895 24.204,36.55 48.542,73.012 72.421,109.773 4.692,7.223 9.322,9.014 17.648,6.485 27.069,-8.226 21.083,-8.768 12.596,-27.854 -9.814,-22.075 -18.033,-44.662 -24.548,-68.013 11.757,16.173 23.385,32.442 35.314,48.486 7.811,10.506 16.233,20.557 24.037,31.067 4.17,5.617 8.688,6.613 14.711,3.352 6.005,-3.251 12.239,-6.077 18.276,-9.271 8.397,-4.443 9.418,-7.182 4.637,-15.584 -19.219,-33.769 -30.793,-70.237 -38.675,-108.039 -0.84,-4.028 -3.55,-9.38 0.729,-11.723 4.1,-2.246 7.93,2.285 10.563,5.437 14.398,17.234 27.999,34.493 32.663,57.801 7.329,36.626 23.394,69.176 49.576,96.674 15.602,16.383 38.477,15.994 56.307,5.794 C 33.37,18.925 39.453,2.503 34.311,-19.011 30.027,-36.929 20.375,-51.155 5.587,-62.1 c -16.154,-11.955 -34.01,-20.657 -52.536,-28.144 -12.575,-5.081 -16.404,-23.866 -6.869,-33.86 4.167,-4.369 9.274,-3.554 14.366,-2.394 32.648,7.445 57.723,26.087 77.211,52.725 9.441,12.905 10.471,13.397 25.062,6.501 2.315,-1.095 4.626,-2.216 6.842,-3.494 13.319,-7.68 13.721,-10.711 3.44,-22.119 -5.155,-5.719 -9.935,-11.753 -12.493,-19.192 -3.716,-10.805 -0.473,-21.032 7.994,-25.237 8.815,-4.378 22.159,-0.167 27.581,9.022 6.998,11.86 5.721,24.771 3.447,37.414 -2.823,15.694 -5.748,31.321 -5.843,47.337 -0.013,2.166 0.917,4.939 -1.446,6.287 -2.646,1.51 -3.957,-1.364 -5.669,-2.603 -8.07,-5.839 -15.195,-5.866 -22.728,-0.225 -3.153,2.362 -4.487,4.461 -0.279,6.96 18.56,11.027 26.168,28.427 28.551,48.913 0.294,2.529 1.035,5.008 1.616,7.5 4.36,18.704 15.712,23.839 32.79,14.92 3.712,-1.938 5.513,-4.57 4.781,-8.93 -6.381,-38.013 0.804,-75.385 5.542,-112.854 1.747,-13.812 4.466,-27.511 5.899,-41.349 1.662,-16.06 -6.077,-27.334 -20.121,-34.426 -17.079,-8.623 -35.268,-11.108 -53.947,-7.662 -19.503,3.596 -32.597,15.315 -39.311,34.04 -3.279,9.14 -3.237,9.108 -10.463,1.918 -18.444,-18.353 -39.895,-29.757 -66.647,-29.987 -15.968,-0.136 -28.867,5.703 -38.924,17.734 -4.182,5.002 -6.53,4.762 -9.983,-0.705 -10.044,-15.903 -22.989,-27.579 -43.369,-27.115 -15.611,0.355 -23.452,6.521 -27.702,21.565 -4.32,15.292 -2.216,30.441 0.855,45.58 1.91,9.408 3.841,18.811 6.234,30.525" /></g><g
           transform="translate(810.085,377.8408)"
           id="g24"><path
             id="path26"
             style="fill:#C3C8DA;fill-opacity:1;fill-rule:nonzero;stroke:none"
             d="m 0,0 c 12.109,0 20.65,0.156 29.185,-0.042 9.524,-0.222 13.512,-4.571 10.988,-13.618 -3.705,-13.279 -11.371,-24.758 -19.688,-35.568 -3.402,-4.421 -9.354,-5.247 -14.905,-5.057 -26.435,0.904 -52.867,1.911 -79.3,2.898 -31.852,1.19 -63.713,1.397 -95.553,-0.082 -21.312,-0.99 -42.64,-1.077 -63.961,-2.109 -58.232,-2.818 -116.28,-7.568 -174.247,-13.667 -65.594,-6.903 -130.886,-15.857 -195.847,-27.265 -3.72,-0.653 -8.357,-2.072 -9.573,3.837 -1.167,5.674 3.846,13.844 9.781,15.217 13.015,3.011 26.101,5.721 39.193,8.382 77.172,15.683 154.779,28.875 232.824,39.32 61.121,8.18 122.425,14.726 183.926,19.584 C -96.979,-4.205 -46.736,-1.684 0,0" /></g><g
           transform="translate(24.5181,313.9854)"
           id="g28"><path
             id="path30"
             style="fill:#C3C8DA;fill-opacity:1;fill-rule:nonzero;stroke:none"
             d="m 0,0 c -0.576,11.168 -0.147,20.538 2.066,29.734 2.758,11.456 8.642,15.429 20.459,14.157 6.496,-0.7 13.079,-0.867 19.488,-2.021 8.855,-1.595 10.811,-4.895 9.207,-13.735 -2.518,-13.875 -2.666,-27.695 1.109,-41.382 0.827,-2.997 1.828,-6.025 3.278,-8.759 7.324,-13.805 17.783,-15.354 28.525,-4.024 12.591,13.281 20.019,29.742 26.444,46.46 21.345,55.539 37.304,112.806 53.664,169.94 1.793,6.259 -0.413,7.633 -5.978,7.312 -5.086,-0.294 -9.55,1.568 -13.134,5.133 -5.022,4.996 -4.496,10.04 1.632,13.701 9.002,5.378 12.845,14.119 15.938,23.413 4.793,14.403 8.209,15.976 22.624,10.459 7.968,-3.049 15.976,-5.993 23.998,-8.895 10.338,-3.74 12.178,-7.165 9.106,-18.145 -7.811,-27.93 -15.819,-55.804 -23.559,-83.753 C 185.308,105.072 176.474,70.339 166.337,35.988 156.424,2.393 142.356,-29.137 115.855,-53.602 90.518,-76.991 56.212,-81.921 29.41,-65.701 9.179,-53.458 1.486,-34.365 0.042,-11.91 -0.249,-7.375 0,-2.806 0,0" /></g></g></g></g></svg>